# xmcd
#
# Track frame offsets:
#	150
#	12074
#	34512
#	47701
#	65234
#	80819
#	95990
#	116703
#	135346
#	146245
#	158601
#
# Disc length: 2307 seconds
#
# Revision: 1
# Processed by: cddbd v1.4PL0 Copyright (c) Steve Scherf et al.
# Submitted via: EasyCDDAExtractor 5.0.7
#
DISCID=9809010b
DTITLE=The Agnostic Mountain Gospel Choir - Saint Hubert
DYEAR=2003
DGENRE=AlternRock
TTITLE0=Saint Hubert
TTITLE1=Cool Drink of Water
TTITLE2=Motherless Child
TTITLE3=Don't We All
TTITLE4=Stop and Listen
TTITLE5=Neighbourhood Butcher
TTITLE6=They Can Make it Rain Bombs
TTITLE7=Heart's not in it
TTITLE8=One Sin
TTITLE9=Fourteen Faces
TTITLE10=Rolling Home
EXTD=
EXTT0=
EXTT1=
EXTT2=
EXTT3=
EXTT4=
EXTT5=
EXTT6=
EXTT7=
EXTT8=
EXTT9=
EXTT10=
PLAYORDER=
